<svg width="99px" height="27px" viewBox="0 0 99 27" version="1.1" xmlns="http://www.w3.org/2000/svg" xmlns:xlink="http://www.w3.org/1999/xlink">
    <g id="Page-1" stroke="none" stroke-width="1" fill="none" fill-rule="evenodd">
        <g id="Group-95" transform="translate(-28.000000, -22.000000)">
            <g id="Group-20-Copy-16" transform="translate(28.000000, 22.000000)">
                <path d="M23.9999625,6 L27.0018375,6 C28.65765,6 29.9999625,7.3423125 29.9999625,9 L29.9999625,12 L29.9999625,15 L29.9999625,18 L29.9999625,21 L29.9999625,24.001875 C29.9999625,25.6576875 28.65765,27 26.9999625,27 L23.9999625,27 L20.9980875,27 C19.342275,27 17.9999625,25.6576875 17.9999625,24 L17.9999625,21 L20.9999625,21 L20.9999625,24 L23.9999625,24 L26.9999625,24 L26.9999625,21 L26.9999625,18 L26.9999625,15 L26.9999625,12 L26.9999625,9 L23.9999625,9 L20.9999625,9 L17.9999625,9 L14.9999625,9 L11.9999625,9 L8.9999625,9 L5.9999625,9 L2.9999625,9 L2.9999625,12 L2.9999625,15 L2.9999625,18 L2.9999625,21 L2.9999625,24 L5.9999625,24 L8.9999625,24 L11.9999625,24 L14.9999625,24 L14.9999625,27 L11.9999625,27 L8.9999625,27 L5.9999625,27 L2.9980875,27 C1.342275,27 -3.75e-05,25.6576875 -3.75e-05,24 L-3.75e-05,21 L-3.75e-05,18 L-3.75e-05,15 L-3.75e-05,12 L-3.75e-05,8.998125 C-3.75e-05,7.3423125 1.342275,6 2.9999625,6 L5.9999625,6 L8.9999625,6 L8.9999625,2.998125 C8.9999625,1.3423125 10.342275,0 11.9999625,0 L14.9999625,0 L18.0018375,0 C19.65765,0 20.9999625,1.3423125 20.9999625,3 L20.9999625,4.5 L17.9999625,4.5 L17.9999625,3 L14.9999625,3 L11.9999625,3 L11.9999625,6 L14.9999625,6 L17.9999625,6 L20.9999625,6 L23.9999625,6 Z M21,15 L18,15 L15,15 L12,15 L9,15 L6,15 L6,12 L9,12 L12,12 L15,12 L18,12 L21,12 L24,12 L24,15 L21,15 Z M9,18 L12,18 L15,18 L15,21 L12,21 L9,21 L6,21 L6,18 L9,18 Z" id="Combined-Shape" fill="#0095FF"></path>
                <path d="M42.54675,8.902125 L42.54675,5.858625 L46.35675,5.858625 L46.35675,8.902125 L42.54675,8.902125 Z M46.402125,10.367625 L46.402125,22.27125 C46.402125,26.1714375 42.749625,26.6675625 40.9460625,26.6675625 C40.3149375,26.6675625 39.9091875,26.599875 39.9091875,26.599875 L39.9091875,23.3535 C39.9091875,23.3535 40.1120625,23.376 40.4049375,23.376 C41.171625,23.376 42.50175,23.195625 42.50175,21.888 L42.50175,10.367625 L46.402125,10.367625 Z M54.5634188,19.0023187 C55.9837313,19.0023187 57.2009813,17.9427562 57.2009813,16.2066937 C57.2009813,14.4481312 55.9837313,13.3433812 54.5634188,13.3433812 C53.1431063,13.3433812 51.9256688,14.4481312 51.9256688,16.2066937 C51.9256688,17.9427562 53.1431063,19.0023187 54.5634188,19.0023187 Z M54.5409188,10.0970062 C58.2157313,10.0970062 61.1463563,12.5543812 61.1463563,16.2066937 C61.1463563,19.8363187 58.2157313,22.2486937 54.5634188,22.2486937 C50.9111063,22.2486937 47.9802938,19.8363187 47.9802938,16.2066937 C47.9802938,12.5543812 50.9111063,10.0970062 54.5409188,10.0970062 Z M68.7896063,19.0248375 C70.0068563,19.0248375 71.0666063,18.032775 71.0666063,16.2517125 C71.0666063,14.5158375 70.1422313,13.3884 68.7896063,13.3884 C67.6171688,13.3884 66.5124188,14.245275 66.5124188,16.2517125 C66.5124188,17.649525 67.2564188,19.0248375 68.7896063,19.0248375 Z M62.7249188,5.8585875 L66.6252938,5.8585875 L66.6252938,10.3450875 C66.6252938,10.9312125 66.5801063,11.3369625 66.5801063,11.3369625 L66.6252938,11.3369625 C66.6252938,11.3369625 67.7075438,10.097025 69.7589813,10.097025 C72.9151688,10.097025 74.9892938,12.5769 74.9892938,16.1842125 C74.9892938,19.8588375 72.6672938,22.2487125 69.5786063,22.2487125 C67.4367938,22.2487125 66.3997313,20.9410875 66.3997313,20.9410875 L66.3547313,20.9410875 C66.3547313,20.9410875 66.3772313,21.23415 66.3772313,21.5949 L66.3772313,21.97815 L62.7249188,21.97815 L62.7249188,5.8585875 Z M82.7004937,19.0248375 C83.9177437,19.0248375 84.9774937,18.032775 84.9774937,16.2517125 C84.9774937,14.5158375 84.0531187,13.3884 82.7004937,13.3884 C81.5280562,13.3884 80.4233062,14.245275 80.4233062,16.2517125 C80.4233062,17.649525 81.1673062,19.0248375 82.7004937,19.0248375 Z M76.6358062,5.8585875 L80.5361812,5.8585875 L80.5361812,10.3450875 C80.5361812,10.9312125 80.4909937,11.3369625 80.4909937,11.3369625 L80.5361812,11.3369625 C80.5361812,11.3369625 81.6184312,10.097025 83.6698687,10.097025 C86.8260562,10.097025 88.9001812,12.5769 88.9001812,16.1842125 C88.9001812,19.8588375 86.5781812,22.2487125 83.4894937,22.2487125 C81.3476812,22.2487125 80.3106187,20.9410875 80.3106187,20.9410875 L80.2656187,20.9410875 C80.2656187,20.9410875 80.2881187,21.23415 80.2881187,21.5949 L80.2881187,21.97815 L76.6358062,21.97815 L76.6358062,5.8585875 Z M90.5465625,10.3676062 L94.2890625,10.3676062 L94.2890625,12.3288562 C94.2890625,12.7122937 94.2440625,13.0503562 94.2440625,13.0503562 L94.2890625,13.0503562 C94.7848125,11.4723562 96.2505,10.1645437 97.986375,10.1645437 C98.2119375,10.1645437 98.4373125,10.2097312 98.4373125,10.2097312 L98.4373125,14.0424187 C98.4373125,14.0424187 98.1215625,13.9747312 97.648125,13.9747312 C96.72375,13.9747312 95.2134375,14.2677937 94.6498125,16.0038562 C94.5144375,16.4321062 94.4469375,16.9505437 94.4469375,17.5820437 L94.4469375,21.9781687 L90.5465625,21.9781687 L90.5465625,10.3676062 Z" id="Combined-Shape" fill="#000000"></path>
            </g>
        </g>
    </g>
</svg>
