<svg fill="currentColor" height="24" viewBox="0 0 24 24" width="24" xmlns="http://www.w3.org/2000/svg">
  <path d="M13.9082628,20.4495107 C14.5673718,20.8981507 15,21.652946 15,22.5084457 C15,23.8844932 13.8807119,25 12.5,25 C11.1192881,25 10,23.8844932 10,22.5084457 C10,21.6257739 10.4605467,20.850305 11.1552193,20.4076951 L10.9257923,19.5094589 C10.4433587,19.6902821 10.1281984,19.6902821 9.98031143,19.5094589 C9.83242445,19.3286357 9.73893573,19.0585836 9.69984526,18.6993027 C9.41451244,18.5445464 9.19592787,18.4671683 9.04409156,18.4671683 C8.81633709,18.4671683 9.27184602,17.4616445 9.04409156,16.3704576 C8.55961548,16.6435852 8.31737745,16.6435852 8.31737745,16.3704576 C8.31737745,16.09733 8.39476386,15.0053835 8.5495367,13.094618 C8.23999103,13.0599032 8.16260461,12.8462982 8.31737745,12.4538032 C8.5495367,11.8650606 9.04409156,10.0785196 9.04409156,9.90647585 C9.04409156,9.73443204 8.31219996,9.41087173 7.6996237,9.07360676 C7.08704745,8.73634178 5.77068384,8.15119906 5.77068384,7.58876243 C5.77068384,7.02632581 6.66604348,4.94402705 6.87754516,4.74105403 C7.08904685,4.538081 7.07428776,4.29149371 7.17574689,4.16416697 C7.17738363,4.16211293 7.17918352,4.15993403 7.18114154,4.15763505 C6.60772108,3.88635337 6.29001736,3.77951994 6.22803037,3.83713477 C5.68410559,4.34269463 5,4.48074685 4.54826562,4.16416697 C4.11116565,3.85784302 4.04358518,2.7585305 4.72829837,1.92952969 C5.41301157,1.10052887 6.3788281,0.742387763 7,1.22256626 C7.6211719,1.70274475 7.22196078,2.63861657 7.22196078,2.74336319 C7.22196078,2.77308688 7.63177844,3.08254583 8.22727286,3.51680484 C8.26504286,3.53786775 8.2986593,3.56321829 8.32697457,3.58941699 C9.01311653,4.0885103 9.91492087,4.73226571 10.721425,5.30573335 C11.0137623,4.79786946 11.439954,4.54393752 12,4.54393752 C13.1995979,4.54393752 13.1501595,5.40133732 13.2954502,5.77059725 C13.4407408,6.13985717 13.5923906,6.35865965 13.5923906,6.59904191 C13.5923906,6.83942417 13.5407269,7.22905778 13.4786802,7.29162754 C13.5862231,7.54427615 13.4651715,7.69863594 13.1155255,7.75470692 C13.1727699,7.96868355 13.377257,8.10368915 13.7289868,8.15972371 C14.2565815,8.24377555 15.2390896,8.52732558 15.4826778,8.71800825 C15.7262659,8.90869091 16.4505809,9.83106743 16.6457748,10.3858314 C16.8409686,10.9405954 17.3364403,11.8594583 17.6107565,12.4538032 C17.7936339,12.8500331 17.9018515,13.267482 17.9354093,13.7061498 C18.5334066,13.6995178 18.8682129,13.8044194 18.9398283,14.0208545 C19.0472514,14.3455071 19.0109649,14.7958332 18.8299624,14.7958332 C18.709294,14.7958332 18.5164731,14.7781738 18.2514997,14.7428551 C18.1388594,14.8465982 17.99702,14.8984698 17.8259813,14.8984698 C17.5694233,14.8984698 17.2060101,14.2975175 17.1409455,14.084588 C16.8553222,13.474964 16.6215303,13.1032912 16.4395697,12.9695694 C16.1666288,12.7689868 15.566784,12.5536109 15.566784,12.3318582 C15.566784,12.1840231 15.4471216,11.9905336 15.2077968,11.7513897 C15.3017351,12.6148821 15.3933621,13.188381 15.4826778,13.4718864 C15.6166513,13.8971445 15.3745721,14.2949225 15.1602648,14.3952547 C15.2972203,14.9728277 15.3130643,15.4678968 15.2077968,15.880462 C15.0498957,16.4993097 15.2141919,16.8287153 14.7125009,16.8287153 C14.6396161,16.7313809 14.575282,16.8123836 14.5194986,17.0717232 C14.4358236,17.4607328 14.3981716,17.8047952 13.9952811,18.210768 C13.9846226,18.6086735 13.8958579,18.8353795 13.7289868,18.8908859 C13.9644835,19.7497977 14.0242422,20.2693393 13.9082628,20.4495107 Z M8.52071095,4.84018791 C8.41338531,4.87717986 8.32045429,4.9018066 8.27077984,4.9018066 C8.11018411,4.9018066 7.77451388,4.95408974 7.77451388,5.18400991 C7.77451388,5.41393007 7.42836321,6.83781555 7.29830582,6.99058006 C7.16824843,7.14334458 8.05498183,7.08794247 8.5495367,7.29162754 C9.04409156,7.49531261 9.65811248,7.83881339 9.69984526,7.83881339 C9.74157805,7.83881339 9.86735095,7.78890676 9.98031143,7.83881339 C10.0932719,7.88872003 10.6871528,8.09271715 10.8737241,7.99071859 C11.0602953,7.88872003 11.1852151,7.81073238 11.1852151,7.69971948 C10.9402857,7.60322057 10.8001686,7.53508495 10.7648639,7.49531261 C10.6031184,7.05663321 10.5222457,6.77824506 10.5222457,6.66014817 C10.4146282,6.37663544 10.3737404,6.20127808 10.3995822,6.13407607 C10.4048154,6.12046716 10.4115003,6.1082171 10.4196369,6.0973259 C10.4352789,6.03351235 10.4519572,5.97166491 10.4696719,5.91178357 C9.72123434,5.49105833 9.07158071,5.13385978 8.52071095,4.84018791 Z"></path>
</svg>
