<?xml version="1.0" encoding="UTF-8"?><!DOCTYPE svg PUBLIC "-//W3C//DTD SVG 1.1//EN" "http://www.w3.org/Graphics/SVG/1.1/DTD/svg11.dtd">
<svg fill="currentColor" xmlns="http://www.w3.org/2000/svg" xmlns:xlink="http://www.w3.org/1999/xlink" version="1.1" width="24" height="24" viewBox="0 0 24 24">
  <path d="M19,3 L19,5 L20,5 C21.11,5 22,5.9 22,7 L22,19 C22,20.05 21.05,21 20,21 L4,21 C2.95,21 2,20.05 2,19 L2,7 C2,5.95 2.95,5 4,5 L5,5 L5,3 L7,3 L7,5 L11,5 L11,3 L13,3 L13,5 L17,5 L17,3 L19,3 Z M20,9 L4,9 L4,19 L20,19 L20,9 Z M13,5 L11,5 L11,7 L13,7 L13,5 Z M19,7 L19,5 L17,5 L17,7 L19,7 Z M5,7 L7,7 L7,5 L5,5 L5,7 Z M17,11 L17,13 L6,13 L6,11 L17,11 Z M13,15 L13,17 L6,17 L6,15 L13,15 Z"></path>
</svg>
