<?xml version="1.0" encoding="UTF-8"?><!DOCTYPE svg PUBLIC "-//W3C//DTD SVG 1.1//EN" "http://www.w3.org/Graphics/SVG/1.1/DTD/svg11.dtd">
<svg fill="currentColor" xmlns="http://www.w3.org/2000/svg" xmlns:xlink="http://www.w3.org/1999/xlink" version="1.1" width="24" height="24" viewBox="0 0 24 24">
  <path d="M12,2 L14,9.5 L19,12.2857143 L19,14 L18,13.5 L18,20 L13.4964346,20 L13.4964346,15.5452299 L10.5012367,15.5452299 L10.5012367,20 L6,20 L6,13.4959862 L5,14 L5,12.2857143 L10,9.5 L12,2 Z M18.5,3 L20,8 L24,10 L24,11.5 L23,11 L22.9631338,16 L20,16 L20,13.1904762 L20,11.6666667 L15,9 L17.0039471,8 L18.5,3 Z M5.5,3 L6.99605289,8 L9,9 L4,11.6666667 L4,13.1904762 L4,16 L1.03686617,16 L1,11 L9.62785407e-13,11.5 L9.62785407e-13,10 L4,8 L5.5,3 Z"></path>
</svg>
